<mxfile host="Electron" modified="2024-02-05T00:23:53.858Z" agent="Mozilla/5.0 (Windows NT 10.0; Win64; x64) AppleWebKit/537.36 (KHTML, like Gecko) draw.io/23.0.2 Chrome/120.0.6099.109 Electron/28.1.0 Safari/537.36" etag="UXOIAMDXdm64jAMoSO6m" version="23.0.2" type="device">
  <diagram name="Страница — 1" id="eZ_tVCg_h0X2Gm_dTags">
    <mxGraphModel dx="2022" dy="703" grid="1" gridSize="10" guides="1" tooltips="1" connect="1" arrows="1" fold="1" page="1" pageScale="1" pageWidth="827" pageHeight="1169" math="0" shadow="0">
      <root>
        <mxCell id="0" />
        <mxCell id="1" parent="0" />
        <mxCell id="QSmbt6kom0b3aY5u2v_s-1" value="Extracting domain &amp;amp; resource" style="ellipse;whiteSpace=wrap;html=1;" vertex="1" parent="1">
          <mxGeometry x="80" y="280" width="160" height="80" as="geometry" />
        </mxCell>
        <mxCell id="QSmbt6kom0b3aY5u2v_s-2" value="" style="endArrow=classic;html=1;rounded=0;entryX=0.5;entryY=0;entryDx=0;entryDy=0;exitX=0.5;exitY=1;exitDx=0;exitDy=0;" edge="1" parent="1" source="QSmbt6kom0b3aY5u2v_s-5" target="QSmbt6kom0b3aY5u2v_s-1">
          <mxGeometry width="50" height="50" relative="1" as="geometry">
            <mxPoint x="140" y="240" as="sourcePoint" />
            <mxPoint x="150" y="190" as="targetPoint" />
          </mxGeometry>
        </mxCell>
        <mxCell id="QSmbt6kom0b3aY5u2v_s-3" value="URL" style="text;html=1;strokeColor=none;fillColor=none;align=center;verticalAlign=middle;whiteSpace=wrap;rounded=0;" vertex="1" parent="1">
          <mxGeometry x="240" y="410" width="60" height="30" as="geometry" />
        </mxCell>
        <mxCell id="QSmbt6kom0b3aY5u2v_s-5" value="&lt;br&gt;&lt;span style=&quot;color: rgb(0, 0, 0); font-family: Helvetica; font-size: 12px; font-style: normal; font-variant-ligatures: normal; font-variant-caps: normal; font-weight: 400; letter-spacing: normal; orphans: 2; text-align: center; text-indent: 0px; text-transform: none; widows: 2; word-spacing: 0px; -webkit-text-stroke-width: 0px; background-color: rgb(251, 251, 251); text-decoration-thickness: initial; text-decoration-style: initial; text-decoration-color: initial; float: none; display: inline !important;&quot;&gt;URL&#39;s fixed lock-free queue&lt;/span&gt;" style="rounded=0;whiteSpace=wrap;html=1;" vertex="1" parent="1">
          <mxGeometry x="100" y="170" width="120" height="60" as="geometry" />
        </mxCell>
        <mxCell id="QSmbt6kom0b3aY5u2v_s-9" value="" style="endArrow=classic;html=1;rounded=0;exitX=0.5;exitY=1;exitDx=0;exitDy=0;entryX=0.5;entryY=0;entryDx=0;entryDy=0;" edge="1" parent="1" source="QSmbt6kom0b3aY5u2v_s-1" target="QSmbt6kom0b3aY5u2v_s-10">
          <mxGeometry width="50" height="50" relative="1" as="geometry">
            <mxPoint x="240" y="490" as="sourcePoint" />
            <mxPoint x="160" y="400" as="targetPoint" />
          </mxGeometry>
        </mxCell>
        <mxCell id="QSmbt6kom0b3aY5u2v_s-10" value="URL validation" style="ellipse;whiteSpace=wrap;html=1;" vertex="1" parent="1">
          <mxGeometry x="80" y="400" width="160" height="80" as="geometry" />
        </mxCell>
        <mxCell id="QSmbt6kom0b3aY5u2v_s-12" value="REP &amp;amp; Sitemap In-Memory Cache" style="rounded=0;whiteSpace=wrap;html=1;" vertex="1" parent="1">
          <mxGeometry x="430" y="290" width="120" height="60" as="geometry" />
        </mxCell>
        <mxCell id="QSmbt6kom0b3aY5u2v_s-14" value="REP &amp;amp; Sitemap&lt;br&gt;validation" style="ellipse;whiteSpace=wrap;html=1;" vertex="1" parent="1">
          <mxGeometry x="310" y="400" width="160" height="80" as="geometry" />
        </mxCell>
        <mxCell id="QSmbt6kom0b3aY5u2v_s-15" value="" style="endArrow=classic;html=1;rounded=0;exitX=1;exitY=0.5;exitDx=0;exitDy=0;entryX=0;entryY=0.5;entryDx=0;entryDy=0;" edge="1" parent="1" source="QSmbt6kom0b3aY5u2v_s-10" target="QSmbt6kom0b3aY5u2v_s-14">
          <mxGeometry width="50" height="50" relative="1" as="geometry">
            <mxPoint x="260" y="460" as="sourcePoint" />
            <mxPoint x="300" y="540" as="targetPoint" />
          </mxGeometry>
        </mxCell>
        <mxCell id="QSmbt6kom0b3aY5u2v_s-16" value="URL" style="text;html=1;strokeColor=none;fillColor=none;align=center;verticalAlign=middle;whiteSpace=wrap;rounded=0;" vertex="1" parent="1">
          <mxGeometry x="160" y="240" width="60" height="30" as="geometry" />
        </mxCell>
        <mxCell id="QSmbt6kom0b3aY5u2v_s-17" value="URL" style="text;html=1;strokeColor=none;fillColor=none;align=center;verticalAlign=middle;whiteSpace=wrap;rounded=0;" vertex="1" parent="1">
          <mxGeometry x="160" y="360" width="60" height="50" as="geometry" />
        </mxCell>
        <mxCell id="QSmbt6kom0b3aY5u2v_s-19" value="" style="endArrow=classic;html=1;rounded=0;exitX=0.5;exitY=0;exitDx=0;exitDy=0;entryX=0;entryY=1;entryDx=0;entryDy=0;" edge="1" parent="1" source="QSmbt6kom0b3aY5u2v_s-14" target="QSmbt6kom0b3aY5u2v_s-12">
          <mxGeometry width="50" height="50" relative="1" as="geometry">
            <mxPoint x="510" y="430" as="sourcePoint" />
            <mxPoint x="560" y="380" as="targetPoint" />
          </mxGeometry>
        </mxCell>
        <mxCell id="QSmbt6kom0b3aY5u2v_s-20" value="Domain" style="text;html=1;strokeColor=none;fillColor=none;align=center;verticalAlign=middle;whiteSpace=wrap;rounded=0;rotation=-45;" vertex="1" parent="1">
          <mxGeometry x="360" y="350" width="60" height="30" as="geometry" />
        </mxCell>
        <mxCell id="QSmbt6kom0b3aY5u2v_s-22" value="" style="endArrow=classic;html=1;rounded=0;entryX=1;entryY=0.5;entryDx=0;entryDy=0;exitX=0.75;exitY=1;exitDx=0;exitDy=0;" edge="1" parent="1" source="QSmbt6kom0b3aY5u2v_s-12" target="QSmbt6kom0b3aY5u2v_s-14">
          <mxGeometry width="50" height="50" relative="1" as="geometry">
            <mxPoint x="670" y="500" as="sourcePoint" />
            <mxPoint x="720" y="450" as="targetPoint" />
          </mxGeometry>
        </mxCell>
        <mxCell id="QSmbt6kom0b3aY5u2v_s-23" value="Domain indexing rules" style="text;html=1;strokeColor=none;fillColor=none;align=center;verticalAlign=middle;whiteSpace=wrap;rounded=0;" vertex="1" parent="1">
          <mxGeometry x="500" y="390" width="90" height="30" as="geometry" />
        </mxCell>
        <mxCell id="QSmbt6kom0b3aY5u2v_s-25" value="REP &amp;amp; Sitemap&lt;br&gt;loading" style="ellipse;whiteSpace=wrap;html=1;" vertex="1" parent="1">
          <mxGeometry x="540" y="450" width="160" height="80" as="geometry" />
        </mxCell>
        <mxCell id="QSmbt6kom0b3aY5u2v_s-26" value="" style="endArrow=classic;html=1;rounded=0;exitX=1;exitY=1;exitDx=0;exitDy=0;entryX=0;entryY=0.5;entryDx=0;entryDy=0;" edge="1" parent="1" source="QSmbt6kom0b3aY5u2v_s-14" target="QSmbt6kom0b3aY5u2v_s-25">
          <mxGeometry width="50" height="50" relative="1" as="geometry">
            <mxPoint x="360" y="620" as="sourcePoint" />
            <mxPoint x="410" y="570" as="targetPoint" />
          </mxGeometry>
        </mxCell>
        <mxCell id="QSmbt6kom0b3aY5u2v_s-27" value="Domain" style="text;html=1;strokeColor=none;fillColor=none;align=center;verticalAlign=middle;whiteSpace=wrap;rounded=0;rotation=15;" vertex="1" parent="1">
          <mxGeometry x="450" y="475" width="60" height="30" as="geometry" />
        </mxCell>
        <mxCell id="QSmbt6kom0b3aY5u2v_s-28" value="" style="endArrow=classic;html=1;rounded=0;entryX=1;entryY=0.5;entryDx=0;entryDy=0;exitX=0.5;exitY=0;exitDx=0;exitDy=0;" edge="1" parent="1" source="QSmbt6kom0b3aY5u2v_s-25" target="QSmbt6kom0b3aY5u2v_s-12">
          <mxGeometry width="50" height="50" relative="1" as="geometry">
            <mxPoint x="690" y="430" as="sourcePoint" />
            <mxPoint x="740" y="380" as="targetPoint" />
          </mxGeometry>
        </mxCell>
        <mxCell id="QSmbt6kom0b3aY5u2v_s-29" value="" style="endArrow=classic;html=1;rounded=0;exitX=0;exitY=1;exitDx=0;exitDy=0;entryX=1;entryY=1;entryDx=0;entryDy=0;" edge="1" parent="1" source="QSmbt6kom0b3aY5u2v_s-14" target="QSmbt6kom0b3aY5u2v_s-10">
          <mxGeometry width="50" height="50" relative="1" as="geometry">
            <mxPoint x="280" y="580" as="sourcePoint" />
            <mxPoint x="330" y="530" as="targetPoint" />
          </mxGeometry>
        </mxCell>
        <mxCell id="QSmbt6kom0b3aY5u2v_s-30" value="Response" style="text;html=1;strokeColor=none;fillColor=none;align=center;verticalAlign=middle;whiteSpace=wrap;rounded=0;" vertex="1" parent="1">
          <mxGeometry x="240" y="470" width="60" height="30" as="geometry" />
        </mxCell>
        <mxCell id="QSmbt6kom0b3aY5u2v_s-38" style="rounded=0;orthogonalLoop=1;jettySize=auto;html=1;exitX=1;exitY=1;exitDx=0;exitDy=0;entryX=0;entryY=0.25;entryDx=0;entryDy=0;" edge="1" parent="1" source="QSmbt6kom0b3aY5u2v_s-31" target="QSmbt6kom0b3aY5u2v_s-35">
          <mxGeometry relative="1" as="geometry">
            <mxPoint x="406.66666666666674" y="680" as="targetPoint" />
          </mxGeometry>
        </mxCell>
        <mxCell id="QSmbt6kom0b3aY5u2v_s-39" style="rounded=0;orthogonalLoop=1;jettySize=auto;html=1;exitX=0.5;exitY=1;exitDx=0;exitDy=0;entryX=0;entryY=0.5;entryDx=0;entryDy=0;" edge="1" parent="1" source="QSmbt6kom0b3aY5u2v_s-31" target="QSmbt6kom0b3aY5u2v_s-36">
          <mxGeometry relative="1" as="geometry">
            <mxPoint x="460" y="750" as="targetPoint" />
          </mxGeometry>
        </mxCell>
        <mxCell id="QSmbt6kom0b3aY5u2v_s-45" style="rounded=0;orthogonalLoop=1;jettySize=auto;html=1;exitX=0;exitY=1;exitDx=0;exitDy=0;entryX=0.5;entryY=1;entryDx=0;entryDy=0;" edge="1" parent="1" source="QSmbt6kom0b3aY5u2v_s-31" target="QSmbt6kom0b3aY5u2v_s-10">
          <mxGeometry relative="1" as="geometry" />
        </mxCell>
        <mxCell id="QSmbt6kom0b3aY5u2v_s-31" value="Uniqueness check" style="ellipse;whiteSpace=wrap;html=1;" vertex="1" parent="1">
          <mxGeometry x="270" y="520" width="160" height="80" as="geometry" />
        </mxCell>
        <mxCell id="QSmbt6kom0b3aY5u2v_s-32" value="" style="endArrow=classic;html=1;rounded=0;exitX=0.74;exitY=0.963;exitDx=0;exitDy=0;exitPerimeter=0;entryX=0.063;entryY=0.275;entryDx=0;entryDy=0;entryPerimeter=0;" edge="1" parent="1" source="QSmbt6kom0b3aY5u2v_s-10" target="QSmbt6kom0b3aY5u2v_s-31">
          <mxGeometry width="50" height="50" relative="1" as="geometry">
            <mxPoint x="400" y="460" as="sourcePoint" />
            <mxPoint x="450" y="410" as="targetPoint" />
          </mxGeometry>
        </mxCell>
        <mxCell id="QSmbt6kom0b3aY5u2v_s-33" value="URL" style="text;html=1;strokeColor=none;fillColor=none;align=center;verticalAlign=middle;whiteSpace=wrap;rounded=0;rotation=40;" vertex="1" parent="1">
          <mxGeometry x="196.42" y="511.17" width="60" height="10" as="geometry" />
        </mxCell>
        <mxCell id="QSmbt6kom0b3aY5u2v_s-34" value="Processed URLs in-memory cache" style="rounded=0;whiteSpace=wrap;html=1;" vertex="1" parent="1">
          <mxGeometry x="480" y="550" width="120" height="60" as="geometry" />
        </mxCell>
        <mxCell id="QSmbt6kom0b3aY5u2v_s-35" value="Processed URLs local NoSQL cache" style="rounded=0;whiteSpace=wrap;html=1;" vertex="1" parent="1">
          <mxGeometry x="480" y="640" width="120" height="60" as="geometry" />
        </mxCell>
        <mxCell id="QSmbt6kom0b3aY5u2v_s-36" value="Remote crawler database" style="rounded=0;whiteSpace=wrap;html=1;" vertex="1" parent="1">
          <mxGeometry x="480" y="730" width="120" height="60" as="geometry" />
        </mxCell>
        <mxCell id="QSmbt6kom0b3aY5u2v_s-37" style="edgeStyle=orthogonalEdgeStyle;rounded=0;orthogonalLoop=1;jettySize=auto;html=1;entryX=0;entryY=0.172;entryDx=0;entryDy=0;entryPerimeter=0;" edge="1" parent="1" source="QSmbt6kom0b3aY5u2v_s-31" target="QSmbt6kom0b3aY5u2v_s-34">
          <mxGeometry relative="1" as="geometry" />
        </mxCell>
        <mxCell id="QSmbt6kom0b3aY5u2v_s-41" value="URL" style="text;html=1;strokeColor=none;fillColor=none;align=center;verticalAlign=middle;whiteSpace=wrap;rounded=0;" vertex="1" parent="1">
          <mxGeometry x="430" y="530" width="60" height="30" as="geometry" />
        </mxCell>
        <mxCell id="QSmbt6kom0b3aY5u2v_s-42" value="URL" style="text;html=1;strokeColor=none;fillColor=none;align=center;verticalAlign=middle;whiteSpace=wrap;rounded=0;rotation=45;" vertex="1" parent="1">
          <mxGeometry x="414.52" y="597.73" width="60" height="14.5" as="geometry" />
        </mxCell>
        <mxCell id="QSmbt6kom0b3aY5u2v_s-43" value="URL" style="text;html=1;strokeColor=none;fillColor=none;align=center;verticalAlign=middle;whiteSpace=wrap;rounded=0;rotation=50;" vertex="1" parent="1">
          <mxGeometry x="386.17" y="648.21" width="60" height="20" as="geometry" />
        </mxCell>
        <mxCell id="QSmbt6kom0b3aY5u2v_s-46" value="Response" style="text;html=1;strokeColor=none;fillColor=none;align=center;verticalAlign=middle;whiteSpace=wrap;rounded=0;rotation=41;" vertex="1" parent="1">
          <mxGeometry x="170" y="521.17" width="60" height="30" as="geometry" />
        </mxCell>
        <mxCell id="QSmbt6kom0b3aY5u2v_s-47" value="" style="endArrow=classic;html=1;rounded=0;exitX=0.5;exitY=1;exitDx=0;exitDy=0;entryX=0.5;entryY=0;entryDx=0;entryDy=0;" edge="1" parent="1" source="QSmbt6kom0b3aY5u2v_s-10" target="QSmbt6kom0b3aY5u2v_s-48">
          <mxGeometry width="50" height="50" relative="1" as="geometry">
            <mxPoint x="120" y="650" as="sourcePoint" />
            <mxPoint x="160" y="560" as="targetPoint" />
          </mxGeometry>
        </mxCell>
        <mxCell id="QSmbt6kom0b3aY5u2v_s-48" value="Downloading &amp;amp; encoding to UTF-8 HTML-page" style="ellipse;whiteSpace=wrap;html=1;" vertex="1" parent="1">
          <mxGeometry x="80" y="551.1700000000001" width="160" height="80" as="geometry" />
        </mxCell>
        <mxCell id="QSmbt6kom0b3aY5u2v_s-49" value="URL" style="text;html=1;strokeColor=none;fillColor=none;align=center;verticalAlign=middle;whiteSpace=wrap;rounded=0;" vertex="1" parent="1">
          <mxGeometry x="110" y="500" width="60" height="50" as="geometry" />
        </mxCell>
        <mxCell id="QSmbt6kom0b3aY5u2v_s-50" value="Fetching links" style="ellipse;whiteSpace=wrap;html=1;" vertex="1" parent="1">
          <mxGeometry x="80" y="670" width="160" height="70" as="geometry" />
        </mxCell>
        <mxCell id="QSmbt6kom0b3aY5u2v_s-51" value="" style="endArrow=classic;html=1;rounded=0;exitX=0.5;exitY=1;exitDx=0;exitDy=0;entryX=0.5;entryY=0;entryDx=0;entryDy=0;" edge="1" parent="1" source="QSmbt6kom0b3aY5u2v_s-48" target="QSmbt6kom0b3aY5u2v_s-50">
          <mxGeometry width="50" height="50" relative="1" as="geometry">
            <mxPoint x="60" y="690" as="sourcePoint" />
            <mxPoint x="110" y="640" as="targetPoint" />
          </mxGeometry>
        </mxCell>
        <mxCell id="QSmbt6kom0b3aY5u2v_s-52" value="" style="endArrow=classic;html=1;rounded=0;exitX=0.5;exitY=1;exitDx=0;exitDy=0;entryX=0.5;entryY=0;entryDx=0;entryDy=0;" edge="1" parent="1" source="QSmbt6kom0b3aY5u2v_s-50" target="QSmbt6kom0b3aY5u2v_s-55">
          <mxGeometry width="50" height="50" relative="1" as="geometry">
            <mxPoint x="100" y="860" as="sourcePoint" />
            <mxPoint x="160" y="800" as="targetPoint" />
          </mxGeometry>
        </mxCell>
        <mxCell id="QSmbt6kom0b3aY5u2v_s-53" value="HTML" style="text;html=1;strokeColor=none;fillColor=none;align=center;verticalAlign=middle;whiteSpace=wrap;rounded=0;" vertex="1" parent="1">
          <mxGeometry x="110" y="631.17" width="60" height="30" as="geometry" />
        </mxCell>
        <mxCell id="QSmbt6kom0b3aY5u2v_s-54" value="HTML" style="text;html=1;strokeColor=none;fillColor=none;align=center;verticalAlign=middle;whiteSpace=wrap;rounded=0;" vertex="1" parent="1">
          <mxGeometry x="110" y="745" width="60" height="30" as="geometry" />
        </mxCell>
        <mxCell id="QSmbt6kom0b3aY5u2v_s-58" style="edgeStyle=orthogonalEdgeStyle;rounded=0;orthogonalLoop=1;jettySize=auto;html=1;exitX=0.5;exitY=1;exitDx=0;exitDy=0;" edge="1" parent="1" source="QSmbt6kom0b3aY5u2v_s-55" target="QSmbt6kom0b3aY5u2v_s-57">
          <mxGeometry relative="1" as="geometry" />
        </mxCell>
        <mxCell id="QSmbt6kom0b3aY5u2v_s-55" value="Filtering waste tags and compressing" style="ellipse;whiteSpace=wrap;html=1;" vertex="1" parent="1">
          <mxGeometry x="80" y="780" width="160" height="70" as="geometry" />
        </mxCell>
        <mxCell id="QSmbt6kom0b3aY5u2v_s-57" value="Remote message broker" style="rounded=0;whiteSpace=wrap;html=1;" vertex="1" parent="1">
          <mxGeometry x="100" y="890" width="120" height="60" as="geometry" />
        </mxCell>
        <mxCell id="QSmbt6kom0b3aY5u2v_s-59" value="Compressed HTML &amp;amp; compression type" style="text;html=1;strokeColor=none;fillColor=none;align=center;verticalAlign=middle;whiteSpace=wrap;rounded=0;" vertex="1" parent="1">
          <mxGeometry x="160" y="850" width="140" height="30" as="geometry" />
        </mxCell>
        <mxCell id="QSmbt6kom0b3aY5u2v_s-61" value="" style="endArrow=classic;html=1;rounded=0;exitX=0.107;exitY=0.203;exitDx=0;exitDy=0;entryX=0.588;entryY=1.035;entryDx=0;entryDy=0;exitPerimeter=0;entryPerimeter=0;" edge="1" parent="1" source="QSmbt6kom0b3aY5u2v_s-50" target="QSmbt6kom0b3aY5u2v_s-62">
          <mxGeometry width="50" height="50" relative="1" as="geometry">
            <mxPoint x="20" y="660" as="sourcePoint" />
            <mxPoint x="70" y="610" as="targetPoint" />
          </mxGeometry>
        </mxCell>
        <mxCell id="QSmbt6kom0b3aY5u2v_s-62" value="Distribute links" style="ellipse;whiteSpace=wrap;html=1;" vertex="1" parent="1">
          <mxGeometry x="-90" y="500" width="160" height="70" as="geometry" />
        </mxCell>
        <mxCell id="QSmbt6kom0b3aY5u2v_s-63" value="Links" style="text;html=1;strokeColor=none;fillColor=none;align=center;verticalAlign=middle;whiteSpace=wrap;rounded=0;rotation=55;" vertex="1" parent="1">
          <mxGeometry x="10" y="618.21" width="60" height="30" as="geometry" />
        </mxCell>
        <mxCell id="QSmbt6kom0b3aY5u2v_s-64" value="" style="endArrow=classic;html=1;rounded=0;exitX=0.5;exitY=0;exitDx=0;exitDy=0;entryX=0;entryY=1;entryDx=0;entryDy=0;" edge="1" parent="1" source="QSmbt6kom0b3aY5u2v_s-62" target="QSmbt6kom0b3aY5u2v_s-5">
          <mxGeometry width="50" height="50" relative="1" as="geometry">
            <mxPoint x="-70" y="440" as="sourcePoint" />
            <mxPoint x="-20" y="390" as="targetPoint" />
          </mxGeometry>
        </mxCell>
        <mxCell id="QSmbt6kom0b3aY5u2v_s-65" value="Links &amp;amp; its parameters" style="text;html=1;strokeColor=none;fillColor=none;align=center;verticalAlign=middle;whiteSpace=wrap;rounded=0;rotation=-70;" vertex="1" parent="1">
          <mxGeometry y="350.00000000000006" width="60" height="20" as="geometry" />
        </mxCell>
        <mxCell id="QSmbt6kom0b3aY5u2v_s-66" value="Remote master node" style="rounded=0;whiteSpace=wrap;html=1;" vertex="1" parent="1">
          <mxGeometry x="-250" y="280" width="120" height="60" as="geometry" />
        </mxCell>
        <mxCell id="QSmbt6kom0b3aY5u2v_s-67" value="" style="endArrow=classic;html=1;rounded=0;entryX=0.5;entryY=1;entryDx=0;entryDy=0;exitX=0;exitY=0;exitDx=0;exitDy=0;" edge="1" parent="1" source="QSmbt6kom0b3aY5u2v_s-62" target="QSmbt6kom0b3aY5u2v_s-66">
          <mxGeometry width="50" height="50" relative="1" as="geometry">
            <mxPoint x="-56" y="505" as="sourcePoint" />
            <mxPoint x="-120" y="630" as="targetPoint" />
          </mxGeometry>
        </mxCell>
        <mxCell id="QSmbt6kom0b3aY5u2v_s-68" value="Links&lt;br&gt;remainder" style="text;html=1;strokeColor=none;fillColor=none;align=center;verticalAlign=middle;whiteSpace=wrap;rounded=0;rotation=50;" vertex="1" parent="1">
          <mxGeometry x="-180" y="410" width="60" height="30" as="geometry" />
        </mxCell>
        <mxCell id="QSmbt6kom0b3aY5u2v_s-71" value="" style="endArrow=classic;html=1;rounded=0;exitX=1;exitY=1;exitDx=0;exitDy=0;entryX=0.424;entryY=-0.009;entryDx=0;entryDy=0;entryPerimeter=0;" edge="1" parent="1" source="QSmbt6kom0b3aY5u2v_s-66" target="QSmbt6kom0b3aY5u2v_s-62">
          <mxGeometry width="50" height="50" relative="1" as="geometry">
            <mxPoint x="-70" y="390" as="sourcePoint" />
            <mxPoint x="40" y="120" as="targetPoint" />
          </mxGeometry>
        </mxCell>
        <mxCell id="QSmbt6kom0b3aY5u2v_s-72" value="External links" style="text;html=1;strokeColor=none;fillColor=none;align=center;verticalAlign=middle;whiteSpace=wrap;rounded=0;rotation=55;" vertex="1" parent="1">
          <mxGeometry x="-90" y="400.00000000000006" width="60" height="20" as="geometry" />
        </mxCell>
        <mxCell id="QSmbt6kom0b3aY5u2v_s-75" value="Remote crawler database" style="rounded=0;whiteSpace=wrap;html=1;" vertex="1" parent="1">
          <mxGeometry x="-210" y="639.9999999999999" width="120" height="60" as="geometry" />
        </mxCell>
        <mxCell id="QSmbt6kom0b3aY5u2v_s-77" value="" style="endArrow=classic;startArrow=classic;html=1;rounded=0;entryX=0.088;entryY=0.75;entryDx=0;entryDy=0;entryPerimeter=0;exitX=0.5;exitY=0;exitDx=0;exitDy=0;" edge="1" parent="1" source="QSmbt6kom0b3aY5u2v_s-75" target="QSmbt6kom0b3aY5u2v_s-62">
          <mxGeometry width="50" height="50" relative="1" as="geometry">
            <mxPoint x="-190" y="620" as="sourcePoint" />
            <mxPoint x="-140" y="570" as="targetPoint" />
          </mxGeometry>
        </mxCell>
        <mxCell id="QSmbt6kom0b3aY5u2v_s-78" value="Link" style="text;html=1;strokeColor=none;fillColor=none;align=center;verticalAlign=middle;whiteSpace=wrap;rounded=0;rotation=-45;" vertex="1" parent="1">
          <mxGeometry x="-140" y="565" width="40" height="20" as="geometry" />
        </mxCell>
        <mxCell id="QSmbt6kom0b3aY5u2v_s-79" value="Link parameters" style="text;html=1;strokeColor=none;fillColor=none;align=center;verticalAlign=middle;whiteSpace=wrap;rounded=0;rotation=-45;" vertex="1" parent="1">
          <mxGeometry x="-110" y="585" width="40" height="20" as="geometry" />
        </mxCell>
        <mxCell id="QSmbt6kom0b3aY5u2v_s-81" value="DNS in-memory cache" style="rounded=0;whiteSpace=wrap;html=1;" vertex="1" parent="1">
          <mxGeometry x="266.16999999999996" y="661.1700000000001" width="120" height="60" as="geometry" />
        </mxCell>
        <mxCell id="QSmbt6kom0b3aY5u2v_s-82" value="" style="endArrow=classic;startArrow=classic;html=1;rounded=0;entryX=1;entryY=1;entryDx=0;entryDy=0;exitX=0.5;exitY=0;exitDx=0;exitDy=0;" edge="1" parent="1" source="QSmbt6kom0b3aY5u2v_s-81" target="QSmbt6kom0b3aY5u2v_s-48">
          <mxGeometry width="50" height="50" relative="1" as="geometry">
            <mxPoint y="800" as="sourcePoint" />
            <mxPoint x="50" y="750" as="targetPoint" />
          </mxGeometry>
        </mxCell>
        <mxCell id="QSmbt6kom0b3aY5u2v_s-83" value="URL" style="text;html=1;strokeColor=none;fillColor=none;align=center;verticalAlign=middle;whiteSpace=wrap;rounded=0;rotation=22;" vertex="1" parent="1">
          <mxGeometry x="256.42" y="618.21" width="36.79" height="20" as="geometry" />
        </mxCell>
        <mxCell id="QSmbt6kom0b3aY5u2v_s-86" value="IP" style="text;html=1;strokeColor=none;fillColor=none;align=center;verticalAlign=middle;whiteSpace=wrap;rounded=0;rotation=22;" vertex="1" parent="1">
          <mxGeometry x="233.20999999999998" y="636.17" width="36.79" height="20" as="geometry" />
        </mxCell>
        <mxCell id="QSmbt6kom0b3aY5u2v_s-88" value="Send queue lack size" style="ellipse;whiteSpace=wrap;html=1;" vertex="1" parent="1">
          <mxGeometry x="-140" y="160" width="160" height="80" as="geometry" />
        </mxCell>
        <mxCell id="QSmbt6kom0b3aY5u2v_s-90" value="Lack size" style="text;html=1;strokeColor=none;fillColor=none;align=center;verticalAlign=middle;whiteSpace=wrap;rounded=0;" vertex="1" parent="1">
          <mxGeometry x="30" y="170" width="60" height="30" as="geometry" />
        </mxCell>
        <mxCell id="QSmbt6kom0b3aY5u2v_s-91" value="" style="endArrow=classic;html=1;rounded=0;exitX=0;exitY=0.5;exitDx=0;exitDy=0;entryX=1;entryY=0.5;entryDx=0;entryDy=0;" edge="1" parent="1" source="QSmbt6kom0b3aY5u2v_s-5" target="QSmbt6kom0b3aY5u2v_s-88">
          <mxGeometry width="50" height="50" relative="1" as="geometry">
            <mxPoint x="-20" y="350" as="sourcePoint" />
            <mxPoint x="30" y="300" as="targetPoint" />
          </mxGeometry>
        </mxCell>
        <mxCell id="QSmbt6kom0b3aY5u2v_s-92" value="" style="endArrow=classic;html=1;rounded=0;exitX=0;exitY=1;exitDx=0;exitDy=0;entryX=0.5;entryY=0;entryDx=0;entryDy=0;" edge="1" parent="1" source="QSmbt6kom0b3aY5u2v_s-88" target="QSmbt6kom0b3aY5u2v_s-66">
          <mxGeometry width="50" height="50" relative="1" as="geometry">
            <mxPoint x="-40" y="340" as="sourcePoint" />
            <mxPoint x="10" y="290" as="targetPoint" />
          </mxGeometry>
        </mxCell>
        <mxCell id="QSmbt6kom0b3aY5u2v_s-93" value="Lack size" style="text;html=1;strokeColor=none;fillColor=none;align=center;verticalAlign=middle;whiteSpace=wrap;rounded=0;rotation=321;" vertex="1" parent="1">
          <mxGeometry x="-190" y="230" width="60" height="30" as="geometry" />
        </mxCell>
      </root>
    </mxGraphModel>
  </diagram>
</mxfile>
